<?xml version="1.0" encoding="UTF-8" standalone="no"?>
<!DOCTYPE svg PUBLIC "-//W3C//DTD SVG 1.1//EN" "http://www.w3.org/Graphics/SVG/1.1/DTD/svg11.dtd">
<svg width="100%" height="100%" viewBox="0 0 233 418" version="1.1" xmlns="http://www.w3.org/2000/svg" xmlns:xlink="http://www.w3.org/1999/xlink" xml:space="preserve" xmlns:serif="http://www.serif.com/" style="fill-rule:evenodd;clip-rule:evenodd;stroke-linejoin:round;stroke-miterlimit:2;">
    <g transform="matrix(1,0,0,1,-1507,-3666)">
        <g transform="matrix(4.16667,0,0,4.16667,0,0)">
            <g transform="matrix(1.46539,0,0,1.46539,-957.852,-311.717)">
                <g id="filigree-two">
                    <g>
                        <g transform="matrix(-0.303798,-1.86022e-17,-1.86022e-17,0.303798,911.005,857.844)">
                            <path d="M21.8,-47.188C28.81,-47.188 34.494,-41.504 34.494,-34.494C34.494,-27.483 28.81,-21.8 21.8,-21.8C-5.386,-21.8 -59.881,-34.494 -59.881,-34.494C-59.881,-34.494 -5.386,-47.188 21.8,-47.188" style="fill:rgb(13,72,95);fill-rule:nonzero;"/>
                        </g>
                        <g transform="matrix(-0.151898,-0.263097,-0.263097,0.151898,923.99,844.742)">
                            <path d="M-25.017,-8.125C-25.017,-8.125 -12.321,46.372 -12.323,73.56C-12.322,80.57 -18.008,86.253 -25.017,86.249C-32.029,86.253 -37.711,80.57 -37.709,73.558C-37.71,46.373 -25.017,-8.125 -25.017,-8.125" style="fill:rgb(13,72,95);fill-rule:nonzero;"/>
                        </g>
                        <g transform="matrix(0.263094,0.151903,0.151903,-0.263094,916.192,853.956)">
                            <path d="M41.762,-63.146C48.776,-63.15 54.457,-57.466 54.454,-50.453C54.457,-23.269 41.762,31.227 41.762,31.227C41.762,31.227 29.066,-23.269 29.069,-50.458C29.068,-57.465 34.754,-63.151 41.762,-63.146" style="fill:rgb(13,72,95);fill-rule:nonzero;"/>
                        </g>
                        <g transform="matrix(0.303798,3.21919e-06,3.21919e-06,-0.303798,920.314,867.15)">
                            <path d="M47.183,-47.182C54.196,-47.188 59.878,-41.501 59.874,-34.491C59.876,-7.305 47.183,47.189 47.183,47.189C47.183,47.189 34.488,-7.306 34.49,-34.495C34.488,-41.502 40.174,-47.189 47.183,-47.182" style="fill:rgb(13,72,95);fill-rule:nonzero;"/>
                        </g>
                        <g transform="matrix(8.37865e-05,0.303798,0.303798,-8.37865e-05,938.505,838.052)">
                            <path d="M-68.977,-25.368C-41.792,-25.379 12.705,-12.698 12.705,-12.698C12.705,-12.698 -41.781,0.003 -68.977,0.013C-75.984,0.014 -81.677,-5.668 -81.662,-12.68C-81.677,-19.694 -75.988,-25.369 -68.977,-25.368" style="fill:rgb(13,72,95);fill-rule:nonzero;"/>
                        </g>
                        <g transform="matrix(-0.263086,0.151918,0.151918,0.263086,916.196,840.771)">
                            <path d="M-41.749,-63.144C-34.736,-63.159 -29.062,-57.467 -29.063,-50.455C-29.057,-23.271 -41.749,31.225 -41.749,31.225C-41.749,31.225 -54.441,-23.265 -54.445,-50.463C-54.446,-57.469 -48.76,-63.16 -41.749,-63.144" style="fill:rgb(13,72,95);fill-rule:nonzero;"/>
                        </g>
                        <g transform="matrix(-0.263147,-0.151811,-0.151811,0.263147,907.314,838.293)">
                            <path d="M6.77,-31.827C13.777,-31.828 19.467,-26.142 19.454,-19.133C19.471,-12.118 13.782,-6.445 6.77,-6.442C-20.415,-6.43 -74.915,-19.106 -74.915,-19.106C-74.915,-19.106 -20.428,-31.814 6.77,-31.827" style="fill:rgb(13,72,95);fill-rule:nonzero;"/>
                        </g>
                        <g transform="matrix(-1.86022e-17,0.303798,0.303798,1.86022e-17,938,847.364)">
                            <path d="M0.001,-22.076C6.097,-22.076 11.039,-17.134 11.039,-11.038C11.039,-4.942 6.097,0 0.001,0C-6.095,0 -11.038,-4.942 -11.038,-11.038C-11.038,-17.134 -6.095,-22.076 0.001,-22.076" style="fill:rgb(13,72,95);fill-rule:nonzero;"/>
                        </g>
                    </g>
                </g>
            </g>
        </g>
    </g>
</svg>
