<?xml version="1.0" encoding="UTF-8" standalone="no"?>
<!DOCTYPE svg PUBLIC "-//W3C//DTD SVG 1.1//EN" "http://www.w3.org/Graphics/SVG/1.1/DTD/svg11.dtd">
<svg width="100%" height="100%" viewBox="0 0 768 176" version="1.1" xmlns="http://www.w3.org/2000/svg" xmlns:xlink="http://www.w3.org/1999/xlink" xml:space="preserve" xmlns:serif="http://www.serif.com/" style="fill-rule:evenodd;clip-rule:evenodd;stroke-linejoin:round;stroke-miterlimit:2;">
    <g transform="matrix(1,0,0,1,-2955,-623)">
        <g transform="matrix(4.16667,0,0,4.16667,2868.75,0)">
            <g transform="matrix(1,0,0,1,-7.83384,0)">
                <g transform="matrix(0.187412,0,0,0.187412,153.231,154.317)">
                    <path d="M0,53.162L-16.525,53.162L-16.525,4.227L0,4.227L0,3.074L-16.525,3.074L-16.525,-22.546L-2.434,-22.546L-2.434,-23.699L-22.033,-23.699L-22.033,54.315L0,54.315L0,53.162ZM36.123,-23.699L8.325,-23.699L8.325,-22.546L19.47,-22.546L19.47,54.315L24.978,54.315L24.978,-22.546L36.123,-22.546L36.123,-23.699ZM51.365,-23.699L45.857,-23.699L45.857,54.315L51.365,54.315L51.365,-23.699ZM158.009,59.951C155.915,58.158 153.417,57.261 150.515,57.261L150.515,58.414C153.161,58.414 155.425,59.203 157.304,60.784C159.182,62.363 160.251,64.391 160.507,66.869C160.763,69.345 159.972,71.501 158.137,73.338C156.299,75.173 154.314,76.092 152.18,76.092C141.334,76.092 131.768,67.766 123.485,51.112C129.804,47.526 134.886,42.488 138.729,35.996C142.573,29.507 144.494,22.418 144.494,14.732C144.494,3.715 140.459,-5.657 132.388,-13.387C124.318,-21.115 114.688,-24.98 103.502,-24.98C92.399,-24.98 82.983,-20.923 75.255,-12.81C67.525,-4.696 63.662,4.954 63.662,16.141C63.662,27.157 67.697,36.531 75.768,44.259C83.838,51.989 93.51,55.852 104.783,55.852C109.65,55.852 114.304,54.997 118.746,53.29C126.089,69.857 136.808,78.142 150.899,78.142C154.314,78.142 157.004,77.009 158.97,74.747C160.933,72.483 161.788,69.857 161.532,66.869C161.275,64.051 160.1,61.745 158.009,59.951M134.63,34.587C131.556,40.736 127.457,45.604 122.333,49.191C117.036,41.505 109.779,37.662 100.555,37.662C94.747,37.662 89.494,39.199 84.799,42.273L85.567,43.426C89.581,40.864 94.705,39.583 100.94,39.583C108.113,39.583 113.75,43.64 117.849,51.753C113.674,53.718 109.288,54.699 104.689,54.699C94.977,54.699 86.63,50.942 79.647,43.426C72.661,35.912 69.17,26.817 69.17,16.141C69.17,5.21 72.515,-4.141 79.208,-11.914C85.9,-19.684 94.02,-23.655 103.568,-23.827C113.283,-23.997 121.658,-20.304 128.692,-12.746C135.725,-5.188 139.242,3.971 139.242,14.732C139.242,21.821 137.705,28.438 134.63,34.587M181.258,-23.571L180.233,-23.571L180.233,43.042C180.233,46.289 179.081,48.979 176.775,51.112C174.469,53.248 171.651,54.315 168.32,54.315C166.27,54.315 164.519,53.248 163.068,51.112C161.615,48.979 160.89,46.289 160.89,43.042L160.89,-23.571L155.382,-23.571L155.382,43.042C155.382,46.545 156.663,49.575 159.225,52.137C161.787,54.699 164.817,55.98 168.32,55.98C171.907,55.98 174.959,54.699 177.479,52.137C179.997,49.575 181.258,46.545 181.258,43.042L181.258,-23.571ZM214.308,53.162L197.783,53.162L197.783,4.227L214.308,4.227L214.308,3.074L197.783,3.074L197.783,-22.546L211.874,-22.546L211.874,-23.699L192.274,-23.699L192.274,54.315L214.308,54.315L214.308,53.162ZM250.431,-23.699L222.633,-23.699L222.633,-22.546L233.778,-22.546L233.778,54.315L239.286,54.315L239.286,-22.546L250.431,-22.546L250.431,-23.699ZM286.297,-23.699L258.499,-23.699L258.499,-22.546L269.644,-22.546L269.644,54.315L275.153,54.315L275.153,-22.546L286.297,-22.546L286.297,-23.699ZM317.809,53.162L301.283,53.162L301.283,4.227L317.809,4.227L317.809,3.074L301.283,3.074L301.283,-22.546L315.375,-22.546L315.375,-23.699L295.775,-23.699L295.775,54.315L317.809,54.315L317.809,53.162Z" style="fill:rgb(94,94,94);fill-rule:nonzero;"/>
                </g>
                <g transform="matrix(0.24,0,0,0.24,-690.263,4.76809)">
                    <g transform="matrix(33.3333,0,0,33.3333,3505.34,735.172)">
                        <path d="M0.465,-0.278C0.479,-0.238 0.52,-0.11 0.528,-0.074C0.535,-0.046 0.526,-0.036 0.498,-0.036L0.473,-0.036C0.467,-0.036 0.464,-0.035 0.464,-0.029L0.464,-0.006C0.464,0 0.467,0.003 0.472,0.003C0.495,0.003 0.53,0 0.613,0C0.694,0 0.715,0.003 0.733,0.003C0.74,0.003 0.743,0.001 0.743,-0.004L0.743,-0.029C0.743,-0.033 0.741,-0.036 0.735,-0.036L0.702,-0.036C0.677,-0.036 0.651,-0.048 0.634,-0.081C0.62,-0.11 0.555,-0.296 0.532,-0.374C0.513,-0.438 0.435,-0.662 0.416,-0.725C0.413,-0.736 0.411,-0.742 0.405,-0.742C0.4,-0.742 0.397,-0.738 0.392,-0.733C0.381,-0.719 0.337,-0.689 0.309,-0.683C0.302,-0.681 0.3,-0.677 0.3,-0.674C0.3,-0.67 0.304,-0.665 0.307,-0.661C0.314,-0.65 0.309,-0.637 0.306,-0.627C0.297,-0.6 0.216,-0.385 0.209,-0.365C0.18,-0.283 0.107,-0.098 0.1,-0.082C0.086,-0.05 0.072,-0.036 0.042,-0.036L0.007,-0.036C0.003,-0.036 -0.001,-0.034 -0.001,-0.029L-0.001,-0.005C-0.001,0.001 0.001,0.003 0.006,0.003C0.02,0.003 0.042,0 0.115,0C0.174,0 0.215,0.003 0.229,0.003C0.234,0.003 0.237,0.001 0.237,-0.006L0.237,-0.029C0.237,-0.034 0.234,-0.036 0.227,-0.036L0.18,-0.036C0.158,-0.036 0.146,-0.044 0.146,-0.058C0.146,-0.063 0.148,-0.073 0.149,-0.08C0.154,-0.101 0.209,-0.253 0.219,-0.278L0.465,-0.278ZM0.232,-0.314C0.239,-0.339 0.334,-0.595 0.339,-0.608C0.342,-0.616 0.346,-0.623 0.35,-0.623C0.353,-0.623 0.355,-0.616 0.358,-0.609C0.363,-0.594 0.444,-0.344 0.453,-0.314L0.232,-0.314Z" style="fill:rgb(94,94,94);fill-rule:nonzero;"/>
                    </g>
                    <g transform="matrix(33.3333,0,0,33.3333,3538.57,735.172)">
                        <path d="M0.14,-0.376C0.14,-0.204 0.138,-0.078 0.136,-0.058C0.135,-0.04 0.127,-0.036 0.101,-0.036L0.056,-0.036C0.052,-0.036 0.049,-0.035 0.049,-0.031L0.049,-0.004C0.049,0.001 0.051,0.003 0.055,0.003C0.07,0.003 0.108,0 0.186,0C0.272,0 0.312,0.003 0.322,0.003C0.328,0.003 0.33,0.001 0.33,-0.005L0.33,-0.03C0.33,-0.034 0.327,-0.036 0.321,-0.036L0.272,-0.036C0.238,-0.036 0.233,-0.041 0.233,-0.068C0.233,-0.083 0.232,-0.251 0.232,-0.281L0.232,-0.318C0.248,-0.318 0.321,-0.318 0.368,-0.312C0.39,-0.309 0.402,-0.297 0.409,-0.273C0.412,-0.262 0.419,-0.232 0.42,-0.224C0.421,-0.219 0.422,-0.216 0.427,-0.217L0.446,-0.221C0.451,-0.222 0.453,-0.224 0.453,-0.229C0.451,-0.249 0.448,-0.297 0.448,-0.333C0.448,-0.347 0.448,-0.43 0.45,-0.447C0.45,-0.451 0.448,-0.454 0.444,-0.454L0.424,-0.455C0.42,-0.455 0.418,-0.452 0.417,-0.448C0.414,-0.43 0.41,-0.409 0.407,-0.399C0.398,-0.368 0.385,-0.359 0.363,-0.355C0.351,-0.353 0.246,-0.35 0.232,-0.35L0.232,-0.4C0.232,-0.461 0.233,-0.662 0.233,-0.675C0.263,-0.675 0.422,-0.672 0.447,-0.666C0.476,-0.659 0.5,-0.642 0.517,-0.619C0.546,-0.58 0.572,-0.543 0.581,-0.527C0.584,-0.521 0.586,-0.519 0.589,-0.52L0.607,-0.527C0.609,-0.528 0.61,-0.53 0.609,-0.534C0.602,-0.56 0.572,-0.695 0.569,-0.712C0.553,-0.707 0.202,-0.708 0.185,-0.708C0.137,-0.708 0.103,-0.709 0.08,-0.71C0.057,-0.71 0.045,-0.711 0.039,-0.711C0.035,-0.711 0.032,-0.709 0.032,-0.705L0.032,-0.678C0.032,-0.674 0.035,-0.672 0.039,-0.672L0.097,-0.672C0.124,-0.672 0.138,-0.662 0.138,-0.643C0.138,-0.631 0.14,-0.49 0.14,-0.446L0.14,-0.376Z" style="fill:rgb(94,94,94);fill-rule:nonzero;"/>
                    </g>
                    <g transform="matrix(33.3333,0,0,33.3333,3557.51,735.172)">
                        <path d="M0.336,-0.119L0.336,-0.331C0.336,-0.358 0.335,-0.381 0.314,-0.402C0.3,-0.415 0.281,-0.429 0.234,-0.429C0.189,-0.429 0.154,-0.419 0.112,-0.394C0.071,-0.37 0.043,-0.332 0.043,-0.3C0.043,-0.277 0.051,-0.268 0.067,-0.268C0.108,-0.268 0.12,-0.29 0.12,-0.325C0.12,-0.343 0.111,-0.358 0.125,-0.371C0.139,-0.384 0.17,-0.392 0.19,-0.392C0.219,-0.392 0.239,-0.383 0.25,-0.37C0.261,-0.357 0.262,-0.331 0.264,-0.314L0.264,-0.25C0.248,-0.236 0.196,-0.212 0.151,-0.192C0.072,-0.157 0.051,-0.117 0.051,-0.071C0.051,-0.008 0.087,0.012 0.111,0.012C0.133,0.012 0.151,0.012 0.17,0.006C0.215,-0.009 0.248,-0.03 0.269,-0.055L0.271,-0.055C0.28,-0.014 0.306,0.012 0.342,0.012C0.393,0.012 0.412,-0.022 0.42,-0.037C0.426,-0.047 0.424,-0.052 0.421,-0.055L0.411,-0.063C0.407,-0.066 0.405,-0.064 0.401,-0.059C0.396,-0.052 0.382,-0.044 0.366,-0.044C0.348,-0.044 0.336,-0.062 0.336,-0.119ZM0.263,-0.097C0.263,-0.07 0.21,-0.035 0.181,-0.035C0.151,-0.035 0.129,-0.053 0.129,-0.09C0.129,-0.173 0.227,-0.193 0.263,-0.22L0.263,-0.097Z" style="fill:rgb(94,94,94);fill-rule:nonzero;"/>
                    </g>
                    <g transform="matrix(33.3333,0,0,33.3333,3571.74,735.172)">
                        <path d="M0.374,-0.05C0.374,-0.037 0.368,-0.033 0.352,-0.033L0.323,-0.033C0.314,-0.033 0.313,-0.031 0.313,-0.023L0.313,-0.007C0.313,0 0.315,0.003 0.32,0.003C0.326,0.003 0.36,0 0.414,0C0.47,0 0.496,0.003 0.503,0.003C0.508,0.003 0.51,0 0.51,-0.008L0.51,-0.024C0.51,-0.031 0.508,-0.033 0.499,-0.033L0.465,-0.033C0.45,-0.033 0.445,-0.043 0.445,-0.056L0.445,-0.229C0.445,-0.274 0.444,-0.301 0.459,-0.33C0.475,-0.359 0.516,-0.382 0.546,-0.382C0.576,-0.382 0.602,-0.375 0.62,-0.361C0.643,-0.343 0.649,-0.314 0.649,-0.281L0.649,-0.133C0.649,-0.111 0.649,-0.075 0.647,-0.052C0.646,-0.038 0.638,-0.033 0.627,-0.033L0.602,-0.033C0.591,-0.033 0.589,-0.031 0.589,-0.024L0.589,-0.007C0.589,0 0.591,0.003 0.597,0.003C0.604,0.003 0.64,0 0.69,0C0.738,0 0.766,0.003 0.773,0.003C0.778,0.003 0.78,0 0.78,-0.007L0.78,-0.024C0.78,-0.031 0.778,-0.033 0.769,-0.033L0.742,-0.033C0.73,-0.033 0.721,-0.038 0.721,-0.053L0.721,-0.276C0.721,-0.353 0.696,-0.375 0.673,-0.399C0.649,-0.423 0.618,-0.429 0.583,-0.429C0.523,-0.429 0.466,-0.391 0.436,-0.352L0.431,-0.352C0.41,-0.399 0.37,-0.429 0.318,-0.429C0.26,-0.429 0.201,-0.394 0.171,-0.353L0.168,-0.353L0.164,-0.411C0.164,-0.418 0.161,-0.425 0.155,-0.425C0.151,-0.425 0.144,-0.423 0.136,-0.419L0.048,-0.374C0.046,-0.373 0.042,-0.369 0.042,-0.366L0.042,-0.358C0.042,-0.355 0.044,-0.353 0.049,-0.35L0.07,-0.339C0.094,-0.326 0.098,-0.308 0.098,-0.288L0.098,-0.11C0.098,-0.093 0.098,-0.075 0.097,-0.058C0.096,-0.039 0.091,-0.033 0.082,-0.033L0.048,-0.033C0.038,-0.033 0.036,-0.032 0.036,-0.024L0.036,-0.006C0.036,0.001 0.038,0.003 0.044,0.003C0.052,0.003 0.084,0 0.137,0C0.192,0 0.219,0.003 0.228,0.003C0.235,0.003 0.236,-0.001 0.236,-0.008L0.236,-0.024C0.236,-0.031 0.235,-0.033 0.226,-0.033L0.19,-0.033C0.176,-0.033 0.17,-0.043 0.17,-0.059L0.17,-0.257C0.17,-0.285 0.172,-0.304 0.184,-0.324C0.212,-0.369 0.254,-0.382 0.28,-0.382C0.302,-0.382 0.331,-0.376 0.344,-0.364C0.36,-0.349 0.374,-0.33 0.374,-0.256L0.374,-0.05Z" style="fill:rgb(94,94,94);fill-rule:nonzero;"/>
                    </g>
                    <g transform="matrix(33.3333,0,0,33.3333,3598.61,735.172)">
                        <path d="M0.102,-0.144C0.102,-0.114 0.102,-0.083 0.101,-0.053C0.1,-0.037 0.096,-0.033 0.085,-0.033L0.036,-0.033C0.029,-0.033 0.026,-0.031 0.026,-0.025L0.026,-0.005C0.026,0.001 0.029,0.003 0.034,0.003C0.045,0.003 0.084,0 0.142,0C0.184,0 0.23,0.003 0.238,0.003C0.245,0.003 0.247,0 0.247,-0.007L0.247,-0.024C0.247,-0.03 0.245,-0.033 0.237,-0.033L0.191,-0.033C0.18,-0.033 0.177,-0.04 0.175,-0.059C0.174,-0.07 0.174,-0.106 0.174,-0.145L0.174,-0.254C0.174,-0.337 0.174,-0.4 0.176,-0.417C0.177,-0.424 0.176,-0.429 0.171,-0.429C0.165,-0.429 0.16,-0.427 0.152,-0.423C0.114,-0.402 0.076,-0.386 0.044,-0.374C0.039,-0.372 0.037,-0.37 0.037,-0.367L0.037,-0.358C0.037,-0.354 0.039,-0.352 0.046,-0.351C0.096,-0.343 0.102,-0.325 0.102,-0.291L0.102,-0.144ZM0.112,-0.544C0.152,-0.544 0.17,-0.573 0.17,-0.599C0.17,-0.621 0.153,-0.648 0.118,-0.648C0.078,-0.648 0.057,-0.621 0.057,-0.596C0.057,-0.564 0.09,-0.544 0.112,-0.544Z" style="fill:rgb(94,94,94);fill-rule:nonzero;"/>
                    </g>
                    <g transform="matrix(33.3333,0,0,33.3333,3607.51,735.172)">
                        <path d="M0.168,-0.387C0.168,-0.442 0.171,-0.65 0.172,-0.705C0.173,-0.718 0.171,-0.723 0.164,-0.723C0.158,-0.723 0.152,-0.721 0.143,-0.715C0.106,-0.691 0.061,-0.673 0.026,-0.657C0.02,-0.655 0.017,-0.653 0.017,-0.65L0.017,-0.642C0.017,-0.64 0.018,-0.639 0.023,-0.637L0.043,-0.63C0.075,-0.62 0.091,-0.604 0.093,-0.57C0.095,-0.544 0.096,-0.453 0.096,-0.382L0.096,-0.319C0.096,-0.261 0.096,-0.089 0.095,-0.058C0.094,-0.04 0.084,-0.033 0.073,-0.033L0.025,-0.033C0.014,-0.033 0.012,-0.031 0.012,-0.024L0.012,-0.007C0.012,-0.001 0.014,0.003 0.019,0.003C0.028,0.003 0.068,0 0.132,0C0.194,0 0.238,0.003 0.245,0.003C0.249,0.003 0.251,-0.001 0.251,-0.007L0.251,-0.024C0.251,-0.03 0.249,-0.033 0.24,-0.033L0.195,-0.033C0.174,-0.033 0.17,-0.047 0.169,-0.064C0.168,-0.095 0.168,-0.246 0.168,-0.298L0.168,-0.387Z" style="fill:rgb(94,94,94);fill-rule:nonzero;"/>
                    </g>
                    <g transform="matrix(33.3333,0,0,33.3333,3616.44,735.172)">
                        <path d="M0.056,0.272C0.109,0.272 0.127,0.233 0.141,0.207C0.159,0.174 0.198,0.081 0.247,-0.03C0.316,-0.187 0.382,-0.339 0.404,-0.366C0.414,-0.379 0.428,-0.384 0.439,-0.384L0.455,-0.384C0.46,-0.384 0.46,-0.387 0.46,-0.393L0.46,-0.412C0.46,-0.416 0.46,-0.42 0.454,-0.42C0.443,-0.42 0.42,-0.417 0.393,-0.417C0.345,-0.417 0.324,-0.42 0.311,-0.42C0.306,-0.42 0.305,-0.417 0.305,-0.412L0.305,-0.392C0.305,-0.387 0.306,-0.384 0.312,-0.384L0.328,-0.384C0.343,-0.384 0.351,-0.371 0.345,-0.346C0.339,-0.321 0.252,-0.114 0.242,-0.098L0.238,-0.098C0.227,-0.12 0.159,-0.34 0.156,-0.362C0.154,-0.377 0.158,-0.384 0.169,-0.384L0.188,-0.384C0.193,-0.384 0.194,-0.387 0.194,-0.392L0.194,-0.413C0.194,-0.417 0.193,-0.42 0.185,-0.42C0.174,-0.42 0.143,-0.417 0.092,-0.417C0.033,-0.417 0.009,-0.42 0,-0.42C-0.007,-0.42 -0.008,-0.417 -0.008,-0.413L-0.008,-0.393C-0.008,-0.387 -0.007,-0.384 0,-0.384L0.026,-0.384C0.052,-0.384 0.061,-0.367 0.073,-0.342C0.081,-0.321 0.187,-0.009 0.192,0.016C0.178,0.055 0.127,0.169 0.112,0.187C0.106,0.193 0.098,0.194 0.091,0.193C0.082,0.191 0.064,0.182 0.045,0.182C0.021,0.182 -0.001,0.2 -0.001,0.221C-0.001,0.251 0.018,0.272 0.056,0.272Z" style="fill:rgb(94,94,94);fill-rule:nonzero;"/>
                    </g>
                    <g transform="matrix(33.3333,0,0,33.3333,3639.44,735.172)">
                        <path d="M0.138,-0.317C0.138,-0.235 0.136,-0.103 0.133,-0.08C0.129,-0.048 0.124,-0.036 0.093,-0.036L0.045,-0.036C0.038,-0.036 0.036,-0.034 0.036,-0.029L0.036,-0.003C0.036,0.001 0.038,0.003 0.05,0.003C0.069,0.003 0.128,0 0.178,0C0.22,0 0.259,0.003 0.328,0.003C0.42,0.003 0.477,-0.007 0.519,-0.033C0.565,-0.062 0.596,-0.132 0.596,-0.183C0.596,-0.289 0.531,-0.349 0.434,-0.381L0.431,-0.383C0.509,-0.424 0.553,-0.449 0.553,-0.548C0.553,-0.607 0.533,-0.653 0.476,-0.684C0.441,-0.704 0.377,-0.711 0.299,-0.711C0.264,-0.711 0.204,-0.708 0.172,-0.708C0.1,-0.708 0.055,-0.711 0.039,-0.711C0.033,-0.711 0.031,-0.709 0.031,-0.704L0.031,-0.679C0.031,-0.674 0.033,-0.672 0.039,-0.672L0.07,-0.672C0.116,-0.672 0.132,-0.67 0.135,-0.612C0.136,-0.594 0.138,-0.472 0.138,-0.435L0.138,-0.317ZM0.226,-0.362L0.258,-0.362C0.304,-0.362 0.351,-0.361 0.392,-0.345C0.451,-0.322 0.492,-0.269 0.492,-0.188C0.492,-0.069 0.415,-0.029 0.331,-0.029C0.248,-0.029 0.226,-0.07 0.226,-0.162L0.226,-0.362ZM0.226,-0.47C0.226,-0.553 0.227,-0.64 0.228,-0.66C0.228,-0.669 0.234,-0.676 0.242,-0.678C0.25,-0.68 0.261,-0.679 0.275,-0.679C0.326,-0.679 0.376,-0.67 0.412,-0.645C0.449,-0.618 0.461,-0.578 0.461,-0.54C0.461,-0.496 0.446,-0.451 0.405,-0.42C0.381,-0.403 0.336,-0.394 0.279,-0.394C0.262,-0.394 0.245,-0.394 0.226,-0.396L0.226,-0.47Z" style="fill:rgb(94,94,94);fill-rule:nonzero;"/>
                    </g>
                    <g transform="matrix(33.3333,0,0,33.3333,3661.44,735.172)">
                        <path d="M0.417,-0.277C0.417,-0.375 0.422,-0.401 0.423,-0.41C0.424,-0.415 0.42,-0.42 0.414,-0.42C0.411,-0.42 0.407,-0.419 0.402,-0.419C0.397,-0.418 0.392,-0.417 0.385,-0.417L0.292,-0.417C0.282,-0.417 0.28,-0.416 0.28,-0.408L0.28,-0.391C0.28,-0.386 0.285,-0.384 0.302,-0.384C0.327,-0.382 0.343,-0.377 0.345,-0.349L0.345,-0.111C0.345,-0.102 0.339,-0.089 0.335,-0.084C0.316,-0.06 0.276,-0.034 0.249,-0.034C0.222,-0.034 0.194,-0.036 0.169,-0.072C0.137,-0.118 0.147,-0.182 0.147,-0.222L0.147,-0.293C0.147,-0.352 0.15,-0.399 0.151,-0.408C0.152,-0.415 0.147,-0.42 0.14,-0.42C0.137,-0.42 0.133,-0.419 0.129,-0.419C0.125,-0.418 0.121,-0.417 0.115,-0.417L0.026,-0.417C0.017,-0.417 0.015,-0.415 0.015,-0.409L0.015,-0.391C0.015,-0.386 0.02,-0.385 0.037,-0.384C0.06,-0.381 0.074,-0.374 0.075,-0.346L0.075,-0.23C0.075,-0.12 0.073,-0.087 0.114,-0.034C0.147,0.009 0.18,0.012 0.208,0.012C0.258,0.012 0.316,-0.019 0.344,-0.058L0.346,-0.058L0.354,0C0.355,0.01 0.359,0.012 0.363,0.012C0.371,0.012 0.377,0.01 0.383,0.008L0.488,-0.027C0.492,-0.028 0.494,-0.03 0.493,-0.036L0.49,-0.049C0.489,-0.053 0.486,-0.055 0.478,-0.053C0.466,-0.05 0.451,-0.05 0.445,-0.05C0.433,-0.05 0.422,-0.054 0.419,-0.085C0.417,-0.106 0.417,-0.155 0.417,-0.203L0.417,-0.277Z" style="fill:rgb(94,94,94);fill-rule:nonzero;"/>
                    </g>
                    <g transform="matrix(33.3333,0,0,33.3333,3678.31,735.172)">
                        <path d="M0.166,0.012C0.251,0.012 0.317,-0.039 0.318,-0.12C0.317,-0.197 0.271,-0.227 0.198,-0.248C0.149,-0.262 0.102,-0.273 0.102,-0.331C0.102,-0.374 0.141,-0.397 0.179,-0.397C0.218,-0.397 0.237,-0.377 0.249,-0.358L0.283,-0.312C0.286,-0.307 0.288,-0.306 0.292,-0.307L0.304,-0.311C0.309,-0.313 0.311,-0.316 0.311,-0.32L0.296,-0.39C0.295,-0.396 0.293,-0.401 0.278,-0.408C0.26,-0.417 0.234,-0.429 0.186,-0.429C0.111,-0.429 0.046,-0.376 0.046,-0.307C0.046,-0.228 0.105,-0.197 0.164,-0.18C0.239,-0.159 0.261,-0.133 0.261,-0.088C0.261,-0.041 0.217,-0.02 0.182,-0.02C0.129,-0.02 0.115,-0.045 0.095,-0.082L0.07,-0.131C0.068,-0.136 0.065,-0.138 0.061,-0.137L0.048,-0.134C0.044,-0.133 0.041,-0.131 0.042,-0.126L0.059,-0.031C0.06,-0.026 0.06,-0.02 0.065,-0.017C0.077,-0.008 0.117,0.012 0.166,0.012Z" style="fill:rgb(94,94,94);fill-rule:nonzero;"/>
                    </g>
                    <g transform="matrix(33.3333,0,0,33.3333,3690.17,735.172)">
                        <path d="M0.102,-0.144C0.102,-0.114 0.102,-0.083 0.101,-0.053C0.1,-0.037 0.096,-0.033 0.085,-0.033L0.036,-0.033C0.029,-0.033 0.026,-0.031 0.026,-0.025L0.026,-0.005C0.026,0.001 0.029,0.003 0.034,0.003C0.045,0.003 0.084,0 0.142,0C0.184,0 0.23,0.003 0.238,0.003C0.245,0.003 0.247,0 0.247,-0.007L0.247,-0.024C0.247,-0.03 0.245,-0.033 0.237,-0.033L0.191,-0.033C0.18,-0.033 0.177,-0.04 0.175,-0.059C0.174,-0.07 0.174,-0.106 0.174,-0.145L0.174,-0.254C0.174,-0.337 0.174,-0.4 0.176,-0.417C0.177,-0.424 0.176,-0.429 0.171,-0.429C0.165,-0.429 0.16,-0.427 0.152,-0.423C0.114,-0.402 0.076,-0.386 0.044,-0.374C0.039,-0.372 0.037,-0.37 0.037,-0.367L0.037,-0.358C0.037,-0.354 0.039,-0.352 0.046,-0.351C0.096,-0.343 0.102,-0.325 0.102,-0.291L0.102,-0.144ZM0.112,-0.544C0.152,-0.544 0.17,-0.573 0.17,-0.599C0.17,-0.621 0.153,-0.648 0.118,-0.648C0.078,-0.648 0.057,-0.621 0.057,-0.596C0.057,-0.564 0.09,-0.544 0.112,-0.544Z" style="fill:rgb(94,94,94);fill-rule:nonzero;"/>
                    </g>
                    <g transform="matrix(33.3333,0,0,33.3333,3699.07,735.172)">
                        <path d="M0.448,-0.312C0.448,-0.337 0.423,-0.387 0.393,-0.407C0.369,-0.423 0.338,-0.429 0.308,-0.429C0.258,-0.429 0.2,-0.392 0.171,-0.356L0.169,-0.356L0.162,-0.417C0.161,-0.425 0.159,-0.429 0.154,-0.429C0.15,-0.429 0.144,-0.426 0.136,-0.422L0.05,-0.374C0.045,-0.372 0.041,-0.369 0.041,-0.364L0.041,-0.359C0.041,-0.356 0.042,-0.353 0.049,-0.35L0.057,-0.346C0.082,-0.334 0.098,-0.317 0.098,-0.287L0.098,-0.053C0.098,-0.036 0.091,-0.033 0.078,-0.033L0.049,-0.033C0.041,-0.033 0.039,-0.03 0.039,-0.024L0.039,-0.006C0.039,0 0.041,0.003 0.046,0.003C0.052,0.003 0.084,0 0.135,0C0.188,0 0.215,0.003 0.222,0.003C0.227,0.003 0.229,0 0.229,-0.006L0.229,-0.023C0.229,-0.03 0.227,-0.033 0.219,-0.033L0.194,-0.033C0.173,-0.033 0.17,-0.039 0.17,-0.066L0.17,-0.273C0.17,-0.292 0.173,-0.319 0.193,-0.341C0.223,-0.373 0.258,-0.38 0.274,-0.38C0.299,-0.38 0.323,-0.38 0.347,-0.362C0.376,-0.341 0.376,-0.312 0.376,-0.272L0.376,-0.14C0.376,-0.114 0.375,-0.082 0.374,-0.056C0.373,-0.038 0.365,-0.033 0.354,-0.033L0.325,-0.033C0.315,-0.033 0.312,-0.031 0.312,-0.024L0.312,-0.008C0.312,0 0.314,0.003 0.32,0.003C0.327,0.003 0.359,0 0.41,0C0.467,0 0.498,0.003 0.505,0.003C0.511,0.003 0.513,-0.001 0.513,-0.008L0.513,-0.024C0.513,-0.03 0.511,-0.033 0.502,-0.033L0.47,-0.033C0.457,-0.033 0.448,-0.038 0.448,-0.054L0.448,-0.312Z" style="fill:rgb(94,94,94);fill-rule:nonzero;"/>
                    </g>
                    <g transform="matrix(33.3333,0,0,33.3333,3716.81,735.172)">
                        <path d="M0.362,-0.266C0.378,-0.266 0.39,-0.268 0.39,-0.282C0.39,-0.321 0.358,-0.429 0.243,-0.429C0.193,-0.429 0.143,-0.42 0.1,-0.376C0.047,-0.323 0.037,-0.256 0.037,-0.217C0.037,-0.147 0.046,-0.11 0.081,-0.059C0.118,-0.005 0.181,0.012 0.238,0.012C0.327,0.012 0.379,-0.057 0.397,-0.097C0.402,-0.108 0.4,-0.111 0.397,-0.112L0.384,-0.119C0.381,-0.12 0.377,-0.118 0.375,-0.114C0.358,-0.081 0.315,-0.046 0.254,-0.046C0.174,-0.046 0.112,-0.12 0.112,-0.218C0.112,-0.241 0.113,-0.257 0.115,-0.266L0.362,-0.266ZM0.119,-0.296C0.138,-0.37 0.18,-0.399 0.224,-0.399C0.289,-0.399 0.301,-0.333 0.301,-0.31C0.301,-0.301 0.293,-0.296 0.274,-0.296L0.119,-0.296Z" style="fill:rgb(94,94,94);fill-rule:nonzero;"/>
                    </g>
                    <g transform="matrix(33.3333,0,0,33.3333,3731.01,735.172)">
                        <path d="M0.166,0.012C0.251,0.012 0.317,-0.039 0.318,-0.12C0.317,-0.197 0.271,-0.227 0.198,-0.248C0.149,-0.262 0.102,-0.273 0.102,-0.331C0.102,-0.374 0.141,-0.397 0.179,-0.397C0.218,-0.397 0.237,-0.377 0.249,-0.358L0.283,-0.312C0.286,-0.307 0.288,-0.306 0.292,-0.307L0.304,-0.311C0.309,-0.313 0.311,-0.316 0.311,-0.32L0.296,-0.39C0.295,-0.396 0.293,-0.401 0.278,-0.408C0.26,-0.417 0.234,-0.429 0.186,-0.429C0.111,-0.429 0.046,-0.376 0.046,-0.307C0.046,-0.228 0.105,-0.197 0.164,-0.18C0.239,-0.159 0.261,-0.133 0.261,-0.088C0.261,-0.041 0.217,-0.02 0.182,-0.02C0.129,-0.02 0.115,-0.045 0.095,-0.082L0.07,-0.131C0.068,-0.136 0.065,-0.138 0.061,-0.137L0.048,-0.134C0.044,-0.133 0.041,-0.131 0.042,-0.126L0.059,-0.031C0.06,-0.026 0.06,-0.02 0.065,-0.017C0.077,-0.008 0.117,0.012 0.166,0.012Z" style="fill:rgb(94,94,94);fill-rule:nonzero;"/>
                    </g>
                    <g transform="matrix(33.3333,0,0,33.3333,3742.87,735.172)">
                        <path d="M0.166,0.012C0.251,0.012 0.317,-0.039 0.318,-0.12C0.317,-0.197 0.271,-0.227 0.198,-0.248C0.149,-0.262 0.102,-0.273 0.102,-0.331C0.102,-0.374 0.141,-0.397 0.179,-0.397C0.218,-0.397 0.237,-0.377 0.249,-0.358L0.283,-0.312C0.286,-0.307 0.288,-0.306 0.292,-0.307L0.304,-0.311C0.309,-0.313 0.311,-0.316 0.311,-0.32L0.296,-0.39C0.295,-0.396 0.293,-0.401 0.278,-0.408C0.26,-0.417 0.234,-0.429 0.186,-0.429C0.111,-0.429 0.046,-0.376 0.046,-0.307C0.046,-0.228 0.105,-0.197 0.164,-0.18C0.239,-0.159 0.261,-0.133 0.261,-0.088C0.261,-0.041 0.217,-0.02 0.182,-0.02C0.129,-0.02 0.115,-0.045 0.095,-0.082L0.07,-0.131C0.068,-0.136 0.065,-0.138 0.061,-0.137L0.048,-0.134C0.044,-0.133 0.041,-0.131 0.042,-0.126L0.059,-0.031C0.06,-0.026 0.06,-0.02 0.065,-0.017C0.077,-0.008 0.117,0.012 0.166,0.012Z" style="fill:rgb(94,94,94);fill-rule:nonzero;"/>
                    </g>
                    <g transform="matrix(33.3333,0,0,33.3333,3555.82,775.172)">
                        <path d="M0.292,0.015C0.424,0.015 0.496,-0.086 0.496,-0.204C0.496,-0.27 0.478,-0.309 0.452,-0.34C0.416,-0.384 0.36,-0.401 0.291,-0.423C0.262,-0.432 0.206,-0.454 0.177,-0.483C0.152,-0.509 0.146,-0.542 0.146,-0.57C0.146,-0.621 0.178,-0.687 0.267,-0.687C0.314,-0.687 0.349,-0.673 0.376,-0.644C0.417,-0.601 0.43,-0.562 0.438,-0.533C0.439,-0.53 0.441,-0.529 0.444,-0.53L0.456,-0.533C0.46,-0.534 0.461,-0.536 0.461,-0.541C0.46,-0.563 0.447,-0.665 0.447,-0.7C0.447,-0.709 0.444,-0.717 0.439,-0.717C0.434,-0.717 0.431,-0.715 0.426,-0.711L0.413,-0.699C0.408,-0.694 0.403,-0.693 0.394,-0.698C0.377,-0.706 0.333,-0.723 0.276,-0.723C0.222,-0.723 0.172,-0.709 0.136,-0.675C0.105,-0.646 0.074,-0.597 0.074,-0.547C0.074,-0.481 0.091,-0.434 0.124,-0.401C0.167,-0.356 0.239,-0.331 0.27,-0.32C0.35,-0.292 0.424,-0.254 0.424,-0.151C0.424,-0.061 0.348,-0.024 0.288,-0.024C0.233,-0.024 0.178,-0.051 0.148,-0.098C0.115,-0.149 0.113,-0.182 0.112,-0.214C0.112,-0.22 0.11,-0.222 0.106,-0.222L0.091,-0.223C0.087,-0.223 0.085,-0.223 0.084,-0.217C0.081,-0.188 0.071,-0.061 0.067,-0.036C0.065,-0.025 0.07,-0.02 0.076,-0.02C0.083,-0.02 0.088,-0.021 0.094,-0.032C0.1,-0.042 0.104,-0.049 0.11,-0.049C0.115,-0.049 0.121,-0.046 0.133,-0.037C0.173,-0.006 0.222,0.015 0.292,0.015Z" style="fill:rgb(94,94,94);fill-rule:nonzero;"/>
                    </g>
                    <g transform="matrix(33.3333,0,0,33.3333,3574.59,775.172)">
                        <path d="M0.102,-0.144C0.102,-0.114 0.102,-0.083 0.101,-0.053C0.1,-0.037 0.096,-0.033 0.085,-0.033L0.036,-0.033C0.029,-0.033 0.026,-0.031 0.026,-0.025L0.026,-0.005C0.026,0.001 0.029,0.003 0.034,0.003C0.045,0.003 0.084,0 0.142,0C0.184,0 0.23,0.003 0.238,0.003C0.245,0.003 0.247,0 0.247,-0.007L0.247,-0.024C0.247,-0.03 0.245,-0.033 0.237,-0.033L0.191,-0.033C0.18,-0.033 0.177,-0.04 0.175,-0.059C0.174,-0.07 0.174,-0.106 0.174,-0.145L0.174,-0.254C0.174,-0.337 0.174,-0.4 0.176,-0.417C0.177,-0.424 0.176,-0.429 0.171,-0.429C0.165,-0.429 0.16,-0.427 0.152,-0.423C0.114,-0.402 0.076,-0.386 0.044,-0.374C0.039,-0.372 0.037,-0.37 0.037,-0.367L0.037,-0.358C0.037,-0.354 0.039,-0.352 0.046,-0.351C0.096,-0.343 0.102,-0.325 0.102,-0.291L0.102,-0.144ZM0.112,-0.544C0.152,-0.544 0.17,-0.573 0.17,-0.599C0.17,-0.621 0.153,-0.648 0.118,-0.648C0.078,-0.648 0.057,-0.621 0.057,-0.596C0.057,-0.564 0.09,-0.544 0.112,-0.544Z" style="fill:rgb(94,94,94);fill-rule:nonzero;"/>
                    </g>
                    <g transform="matrix(33.3333,0,0,33.3333,3583.49,775.172)">
                        <path d="M0.448,-0.312C0.448,-0.337 0.423,-0.387 0.393,-0.407C0.369,-0.423 0.338,-0.429 0.308,-0.429C0.258,-0.429 0.2,-0.392 0.171,-0.356L0.169,-0.356L0.162,-0.417C0.161,-0.425 0.159,-0.429 0.154,-0.429C0.15,-0.429 0.144,-0.426 0.136,-0.422L0.05,-0.374C0.045,-0.372 0.041,-0.369 0.041,-0.364L0.041,-0.359C0.041,-0.356 0.042,-0.353 0.049,-0.35L0.057,-0.346C0.082,-0.334 0.098,-0.317 0.098,-0.287L0.098,-0.053C0.098,-0.036 0.091,-0.033 0.078,-0.033L0.049,-0.033C0.041,-0.033 0.039,-0.03 0.039,-0.024L0.039,-0.006C0.039,0 0.041,0.003 0.046,0.003C0.052,0.003 0.084,0 0.135,0C0.188,0 0.215,0.003 0.222,0.003C0.227,0.003 0.229,0 0.229,-0.006L0.229,-0.023C0.229,-0.03 0.227,-0.033 0.219,-0.033L0.194,-0.033C0.173,-0.033 0.17,-0.039 0.17,-0.066L0.17,-0.273C0.17,-0.292 0.173,-0.319 0.193,-0.341C0.223,-0.373 0.258,-0.38 0.274,-0.38C0.299,-0.38 0.323,-0.38 0.347,-0.362C0.376,-0.341 0.376,-0.312 0.376,-0.272L0.376,-0.14C0.376,-0.114 0.375,-0.082 0.374,-0.056C0.373,-0.038 0.365,-0.033 0.354,-0.033L0.325,-0.033C0.315,-0.033 0.312,-0.031 0.312,-0.024L0.312,-0.008C0.312,0 0.314,0.003 0.32,0.003C0.327,0.003 0.359,0 0.41,0C0.467,0 0.498,0.003 0.505,0.003C0.511,0.003 0.513,-0.001 0.513,-0.008L0.513,-0.024C0.513,-0.03 0.511,-0.033 0.502,-0.033L0.47,-0.033C0.457,-0.033 0.448,-0.038 0.448,-0.054L0.448,-0.312Z" style="fill:rgb(94,94,94);fill-rule:nonzero;"/>
                    </g>
                    <g transform="matrix(33.3333,0,0,33.3333,3601.22,775.172)">
                        <path d="M0.228,-0.397C0.252,-0.397 0.273,-0.394 0.295,-0.353C0.31,-0.326 0.327,-0.313 0.35,-0.313C0.371,-0.313 0.386,-0.325 0.387,-0.348C0.387,-0.369 0.355,-0.429 0.251,-0.429C0.119,-0.429 0.037,-0.311 0.037,-0.194C0.037,-0.149 0.045,-0.107 0.082,-0.058C0.128,0 0.184,0.012 0.237,0.012C0.305,0.012 0.369,-0.026 0.398,-0.059C0.403,-0.065 0.402,-0.068 0.398,-0.072L0.388,-0.082C0.385,-0.085 0.382,-0.084 0.38,-0.082C0.346,-0.05 0.32,-0.039 0.27,-0.039C0.236,-0.039 0.194,-0.047 0.161,-0.09C0.134,-0.127 0.11,-0.188 0.11,-0.242C0.11,-0.345 0.171,-0.397 0.228,-0.397Z" style="fill:rgb(94,94,94);fill-rule:nonzero;"/>
                    </g>
                    <g transform="matrix(33.3333,0,0,33.3333,3614.92,775.172)">
                        <path d="M0.362,-0.266C0.378,-0.266 0.39,-0.268 0.39,-0.282C0.39,-0.321 0.358,-0.429 0.243,-0.429C0.193,-0.429 0.143,-0.42 0.1,-0.376C0.047,-0.323 0.037,-0.256 0.037,-0.217C0.037,-0.147 0.046,-0.11 0.081,-0.059C0.118,-0.005 0.181,0.012 0.238,0.012C0.327,0.012 0.379,-0.057 0.397,-0.097C0.402,-0.108 0.4,-0.111 0.397,-0.112L0.384,-0.119C0.381,-0.12 0.377,-0.118 0.375,-0.114C0.358,-0.081 0.315,-0.046 0.254,-0.046C0.174,-0.046 0.112,-0.12 0.112,-0.218C0.112,-0.241 0.113,-0.257 0.115,-0.266L0.362,-0.266ZM0.119,-0.296C0.138,-0.37 0.18,-0.399 0.224,-0.399C0.289,-0.399 0.301,-0.333 0.301,-0.31C0.301,-0.301 0.293,-0.296 0.274,-0.296L0.119,-0.296Z" style="fill:rgb(94,94,94);fill-rule:nonzero;"/>
                    </g>
                    <g transform="matrix(33.3333,0,0,33.3333,3637.59,775.172)">
                        <path d="M0.226,-0.325C0.226,-0.307 0.226,-0.105 0.225,-0.092C0.223,-0.039 0.221,-0.036 0.156,-0.036L0.11,-0.036C0.102,-0.036 0.096,-0.035 0.096,-0.03L0.096,-0.005C0.096,0.001 0.099,0.003 0.104,0.003C0.109,0.003 0.25,0 0.259,0C0.268,0 0.404,0.003 0.413,0.003C0.42,0.003 0.422,0.001 0.422,-0.005L0.422,-0.028C0.422,-0.033 0.419,-0.036 0.412,-0.036L0.376,-0.036C0.311,-0.036 0.307,-0.043 0.306,-0.095C0.306,-0.108 0.305,-0.32 0.305,-0.332L0.305,-0.374C0.305,-0.503 0.308,-0.66 0.308,-0.669C0.308,-0.677 0.307,-0.683 0.301,-0.683C0.296,-0.683 0.292,-0.68 0.287,-0.677L0.08,-0.558C0.073,-0.554 0.072,-0.55 0.074,-0.546L0.082,-0.528C0.084,-0.524 0.088,-0.524 0.092,-0.525L0.162,-0.548C0.178,-0.553 0.193,-0.556 0.202,-0.556C0.221,-0.556 0.225,-0.534 0.226,-0.5C0.227,-0.421 0.226,-0.374 0.226,-0.361L0.226,-0.325Z" style="fill:rgb(94,94,94);fill-rule:nonzero;"/>
                    </g>
                    <g transform="matrix(33.3333,0,0,33.3333,3654.26,775.172)">
                        <path d="M0.246,-0.683C0.204,-0.683 0.158,-0.665 0.119,-0.631C0.081,-0.598 0.045,-0.515 0.045,-0.477C0.045,-0.382 0.092,-0.277 0.23,-0.277C0.289,-0.277 0.325,-0.301 0.352,-0.326L0.353,-0.324C0.331,-0.157 0.198,-0.048 0.111,-0.013C0.106,-0.011 0.102,-0.006 0.102,0.001C0.102,0.011 0.109,0.015 0.117,0.015C0.124,0.015 0.138,0.011 0.148,0.008C0.203,-0.01 0.242,-0.032 0.292,-0.076C0.41,-0.18 0.455,-0.318 0.455,-0.452C0.455,-0.483 0.446,-0.562 0.401,-0.613C0.356,-0.662 0.317,-0.683 0.246,-0.683ZM0.249,-0.651C0.34,-0.651 0.365,-0.564 0.365,-0.476C0.365,-0.435 0.362,-0.402 0.35,-0.377C0.337,-0.351 0.307,-0.32 0.249,-0.32C0.181,-0.32 0.125,-0.388 0.125,-0.482C0.125,-0.594 0.19,-0.651 0.249,-0.651Z" style="fill:rgb(94,94,94);fill-rule:nonzero;"/>
                    </g>
                    <g transform="matrix(33.3333,0,0,33.3333,3670.92,775.172)">
                        <path d="M0.315,0C0.345,0 0.364,0.001 0.37,0.014C0.374,0.023 0.374,0.024 0.383,0.024C0.401,0.024 0.393,0.024 0.398,0.013L0.463,-0.143C0.467,-0.149 0.463,-0.153 0.455,-0.157C0.445,-0.162 0.442,-0.161 0.437,-0.152C0.415,-0.115 0.389,-0.068 0.321,-0.068L0.118,-0.068C0.162,-0.107 0.241,-0.165 0.309,-0.243C0.399,-0.344 0.433,-0.416 0.433,-0.501C0.433,-0.614 0.342,-0.683 0.258,-0.683C0.123,-0.683 0.074,-0.572 0.058,-0.533C0.054,-0.524 0.055,-0.521 0.058,-0.519L0.072,-0.513C0.077,-0.51 0.08,-0.511 0.084,-0.518C0.101,-0.548 0.133,-0.614 0.218,-0.615C0.29,-0.616 0.344,-0.563 0.347,-0.474C0.35,-0.387 0.304,-0.31 0.224,-0.224C0.144,-0.138 0.056,-0.061 0.009,-0.017C0.004,-0.012 0.003,-0.009 0.006,-0.002C0.009,0.004 0.012,0.004 0.017,0.004C0.021,0.004 0.033,0.003 0.048,0.002C0.063,0.001 0.081,0 0.098,0L0.315,0Z" style="fill:rgb(94,94,94);fill-rule:nonzero;"/>
                    </g>
                    <g transform="matrix(33.3333,0,0,33.3333,3687.59,775.172)">
                        <path d="M0.315,0C0.345,0 0.364,0.001 0.37,0.014C0.374,0.023 0.374,0.024 0.383,0.024C0.401,0.024 0.393,0.024 0.398,0.013L0.463,-0.143C0.467,-0.149 0.463,-0.153 0.455,-0.157C0.445,-0.162 0.442,-0.161 0.437,-0.152C0.415,-0.115 0.389,-0.068 0.321,-0.068L0.118,-0.068C0.162,-0.107 0.241,-0.165 0.309,-0.243C0.399,-0.344 0.433,-0.416 0.433,-0.501C0.433,-0.614 0.342,-0.683 0.258,-0.683C0.123,-0.683 0.074,-0.572 0.058,-0.533C0.054,-0.524 0.055,-0.521 0.058,-0.519L0.072,-0.513C0.077,-0.51 0.08,-0.511 0.084,-0.518C0.101,-0.548 0.133,-0.614 0.218,-0.615C0.29,-0.616 0.344,-0.563 0.347,-0.474C0.35,-0.387 0.304,-0.31 0.224,-0.224C0.144,-0.138 0.056,-0.061 0.009,-0.017C0.004,-0.012 0.003,-0.009 0.006,-0.002C0.009,0.004 0.012,0.004 0.017,0.004C0.021,0.004 0.033,0.003 0.048,0.002C0.063,0.001 0.081,0 0.098,0L0.315,0Z" style="fill:rgb(94,94,94);fill-rule:nonzero;"/>
                    </g>
                </g>
            </g>
            <g transform="matrix(1,0,0,1,-447.619,73.3374)">
                <g transform="matrix(1,0,0,1,528.67,91.981)">
                    <path d="M0,-15.683C3.48,-15.57 6.567,-14.149 9.889,-13.709C15.118,-13.026 28.177,-14.027 29.066,-7.863C29.627,-3.897 21.207,-0.903 18.224,-0.286C17.914,-0.23 17.322,0 16.611,-0.203C16.289,-0.491 16.221,-0.762 16.221,-1.202C16.362,-1.801 16.272,-1.796 16.586,-2.203C17.671,-3.784 27.092,-4.935 25.492,-8.695C25.295,-9.153 24.865,-9.509 24.407,-9.696C23.275,-10.154 21.676,-10.22 20.356,-10.36C15.726,-10.875 10.552,-11.249 5.969,-11.997C4.323,-12.268 2.048,-12.184 0.814,-13.232C0.149,-13.793 0.112,-14.729 0,-15.683" style="fill:rgb(245,134,98);fill-rule:nonzero;"/>
                </g>
                <g transform="matrix(1,0,0,1,484.068,98.6473)">
                    <path d="M0,-5.886C-2.189,-7.232 -8.064,-7.195 -9.439,-9.459C-12.629,-14.706 7.324,-20.402 7.845,-20.402C8.362,-20.381 11.029,-19.402 9.719,-18.355C9.009,-17.794 8.157,-17.691 7.24,-17.391C4.228,-16.447 -4.528,-14.361 -5.8,-11.498C-7.147,-8.514 3.358,-9.824 3.012,-5.914C2.9,-4.67 1.983,-3.5 1.048,-2.789C-1.945,-0.553 -5.641,0.728 -8.54,2.973C-10.085,4.161 -13.536,8.108 -11.141,9.979C-9.991,10.878 -7.857,10.878 -6.286,10.878C-4.233,10.461 -3.068,9.736 -1.469,9.156C0.234,8.483 3.236,6.687 5.088,6.687C5.248,7.201 5.519,8.155 5.238,8.707C4.004,11.084 -4.144,13.983 -6.913,14.264C-9.457,14.516 -13.49,14.123 -14.893,12.018C-19.196,5.564 -6.053,-2.584 -1.862,-4.51C-1.043,-4.939 0.129,-5.232 0.194,-5.492" style="fill:rgb(245,134,98);fill-rule:nonzero;"/>
                </g>
                <g transform="matrix(1,0,0,1,540.661,106.771)">
                    <path d="M0,-19.312C0.777,-19.191 1.88,-19.013 2.311,-18.433C3.481,-16.833 2.676,-6.684 2.283,-4.673C1.917,-3.167 1.563,-1.661 1.198,-0.154C1.078,-0.016 0.231,0.12 -0.531,0.103C-0.635,0.103 -1.107,0.103 -1.197,-0.154C-1.141,-2.082 -0.477,-3.719 -0.355,-5.552C-0.084,-9.958 -1.141,-19.432 0,-19.312" style="fill:rgb(245,134,98);fill-rule:nonzero;"/>
                </g>
                <g transform="matrix(1,0,0,1,530.865,101.19)">
                    <path d="M0,2.89C0.715,3.225 -1.053,10.673 -0.099,11.599C0.602,12.273 4.662,11.927 5.888,11.927C11.099,11.927 16.235,11.749 21.164,11.749C26.31,11.749 34.541,10.814 38.387,13.311C39.34,13.928 39.959,15.806 39.714,17.015C39.482,17.186 39.382,17.211 39.116,17.015C36.496,14.075 28.583,14.902 22.951,14.902C15.467,14.902 7.834,14.481 0.201,14.967C-6.263,15.37 -13.317,15.435 -19.855,15.65C-21.559,15.696 -23.458,15.912 -25.253,15.856C-28.406,15.753 -45.207,17.305 -45.993,14.471C-46.105,14.069 -45.872,13.554 -45.478,13.358C-43.055,12.086 -38.612,13.554 -36.021,13.676C-30.137,13.694 -24.243,13.714 -18.359,13.723C-16.8,13.648 -16.197,13.623 -15.066,13.424C-12.032,13.296 -11.268,13.124 -9.678,13.124C-8.018,12.995 -7.616,13.02 -6.684,12.825C-6.002,12.666 -5.32,12.507 -4.645,12.338C-3.092,11.889 -2.849,10.168 -2.867,8.634C-2.878,8.166 -2.794,6.838 -3.392,6.838C-4.056,6.745 -4.72,6.651 -5.393,6.558C-5.871,6.389 -6.329,5.837 -6.937,5.837C-8.368,5.837 -9.594,6.997 -11.185,7.053C-12.84,7.1 -13.935,6.239 -15.366,6.239C-17.228,6.239 -18.986,7.25 -21.044,7.025C-22.447,6.866 -23.252,5.463 -24.599,5.463C-27.919,6.222 -28.714,7.063 -28.836,6.838C-28.989,6.864 -29.563,5.464 -29.734,4.743C-29.944,4.507 -30.278,4.38 -30.633,4.743C-31.306,5.491 -32.389,6.698 -33.327,6.539C-33.6,6.467 -33.621,4.739 -33.728,4.219C-33.728,4.117 -33.728,3.593 -33.925,3.246C-34.119,3.065 -34.177,2.961 -34.524,3.246C-34.615,3.348 -34.645,3.425 -34.684,3.538C-35.157,4.322 -35.721,5.771 -37.004,6.342C-37.2,6.427 -37.303,6.364 -37.518,6.239C-39.472,5.098 -38.715,-1.169 -38.715,-0.945C-37.237,-0.758 -36.32,-0.084 -36.32,1.45C-36.276,1.658 -35.976,1.727 -35.721,1.45C-35.619,1.242 -35.688,1.242 -35.502,0.984C-34.073,0.204 -32.066,0.262 -31.812,2.73C-31.755,2.88 -31.617,2.915 -31.42,2.915C-31.19,2.845 -31.086,2.661 -30.74,2.43C-28.191,1.046 -27.371,3.526 -27.12,3.688C-26.984,3.858 -26.788,4.097 -26.696,4.173C-26.571,4.219 -26.529,4.185 -26.442,4.144C-26.345,4.056 -26.126,3.687 -25.884,3.491C-21.973,0.7 -22.728,6.286 -18.986,4.958C-18.303,4.705 -17.63,4.49 -17.134,3.91C-16.189,2.788 -16.675,0.281 -16.385,-1.207C-15.179,-7.614 -10.865,-12.784 -6.386,-14.415C1.257,-13.937 -4.121,-3.882 -6.376,-0.945C-7.891,1.001 -9.725,2.413 -11.755,3.582C-12.129,3.788 -12.722,4.021 -12.907,4.517C-13.022,4.701 -13.022,4.863 -12.976,4.99C-12.976,5.093 -12.854,5.134 -12.676,5.117C-12.053,5.186 -7.382,3.34 -6.886,2.44C-6.598,1.806 -6.505,1.795 -6.386,1.749C-5.197,2.385 -4.635,4.444 -3.092,4.444C-2.597,3.845 -1.43,2.429 -0.139,2.867M-6.086,-11.721C-6.46,-11.93 -14.169,-4.369 -14.169,2.048C-14.222,2.476 -13.565,2.303 -13.271,2.048C-11.193,-0.935 -2.924,-7.923 -6.086,-11.721" style="fill:rgb(245,134,98);fill-rule:nonzero;"/>
                </g>
                <g transform="matrix(1,0,0,1,561.001,108.808)">
                    <path d="M0,-14.549C0.739,-14.484 2.573,-14.617 2.221,-13.055C2.969,-12.874 4.396,-13.549 5.388,-13.651C6.089,-13.754 6.791,-13.847 7.484,-13.95C8.186,-14.053 8.842,-14.276 9.533,-14.379C11.345,-14.723 13.835,-14.456 14.294,-12.744C14.322,-12.65 14.35,-12.547 14.369,-12.454C14.378,-12.41 14.401,-12.342 14.321,-12.195C14.163,-12.093 13.88,-12.081 13.303,-12.183C10.468,-12.277 4.106,-12.791 2.591,-10.237C1.918,-9.115 1.814,-6.57 2.292,-5.354C2.638,-4.465 4.462,-3.203 3.05,-2.342C-1.123,0.174 -0.384,-6.943 -0.748,-9.143C-0.936,-10.256 -2.096,-10.892 -2.096,-12.155C-2.068,-12.251 -1.471,-12.195 -1.378,-12.195C-0.46,-12.998 -0.235,-14.64 0,-14.549" style="fill:rgb(245,134,98);fill-rule:nonzero;"/>
                </g>
                <g transform="matrix(1,0,0,1,508.614,100.844)">
                    <path d="M0,-3.892C2.545,-2.816 0.356,0 -1.796,0C-1.683,-1.853 -1.066,-2.592 0,-3.892" style="fill:rgb(245,134,98);fill-rule:nonzero;"/>
                </g>
                <g transform="matrix(1,0,0,1,555.393,107.882)">
                    <path d="M0,-7.883C0.393,-8.216 2.459,-7.988 3.052,-7.683C3.276,-7.476 3.323,-7.277 3.306,-6.904C3.171,-5.786 2.391,-5.803 1.782,-5.836C1.629,-5.821 1.324,-5.938 0.867,-5.786C0.678,-5.552 0.698,-5.464 0.664,-5.328C0.664,-5.132 0.686,-5.095 0.818,-4.943C0.895,-4.87 1.076,-4.65 1.384,-4.485C1.766,-4.223 2.472,-4.136 2.708,-3.848C3.021,-3.439 3.134,-3.066 3.241,-2.239C3.371,0.333 -1.19,0.324 -1.876,0.146C-2.414,-0.061 -2.261,-1.124 -1.804,-1.87C-1.688,-1.959 -1.728,-1.935 -1.577,-1.949L0.219,-1.949C0.297,-1.947 0.406,-1.971 0.454,-2.019C0.598,-2.103 0.626,-2.336 0.446,-2.42C0.306,-2.488 0.294,-2.492 0.219,-2.548C-0.267,-2.847 -0.745,-3.146 -1.231,-3.455C-2.503,-4.933 -0.55,-7.602 0,-7.883" style="fill:rgb(245,134,98);fill-rule:nonzero;"/>
                </g>
                <g transform="matrix(1,0,0,1,547.529,108.198)">
                    <path d="M0,-8.252C0.971,-8.643 2.283,-8.252 2.92,-7.84C5.249,-6.344 4.977,-2.537 2.321,-1.574C-3.18,0.391 -3.573,-5.446 0,-8.252M0.899,-6.157C-0.47,-6.068 -0.334,-3.967 0,-3.762C1.496,-3.222 1.936,-6.051 0.899,-6.157" style="fill:rgb(245,134,98);fill-rule:nonzero;"/>
                </g>
                <g transform="matrix(1,0,0,1,572.69,118.177)">
                    <path d="M0,-5.054C0.715,-5.331 1.534,-5.158 2.123,-4.831C3.536,-4.063 3.9,-1.584 2.385,-0.715C0.635,0.277 -1.769,-0.967 -1.413,-3.156C-1.292,-3.952 -0.727,-4.892 0,-5.054M1.142,-4.731C0.946,-4.789 0.692,-4.789 0.427,-4.765C0.324,-4.765 -0.034,-4.627 -0.115,-4.466C0.427,-4.546 1.544,-4.472 1.778,-4.023C1.876,-3.905 2.353,-3.37 1.523,-2.609C1.603,-2.413 1.707,-2.297 1.926,-2.078C1.972,-1.974 1.995,-1.974 2.111,-1.79C2.238,-1.651 2.319,-1.479 2.319,-1.386C2.421,-1.386 2.607,-1.444 2.757,-1.571C2.953,-2.124 2.884,-2.657 2.884,-2.862C2.838,-3.474 2.592,-4.347 1.142,-4.731M-0.288,-4.362C-0.625,-4.119 -1.269,-3.497 -0.75,-2.032C-0.75,-1.929 -0.554,-1.363 -0.137,-1.071C0.067,-1.038 0.034,-1.052 0.195,-1.052C0.092,-1.949 -0.185,-3.464 -0.288,-4.362M0.938,-2.752C1.974,-2.713 1.251,-3.768 0.635,-3.649C0.738,-3.444 0.836,-2.948 0.938,-2.752M0.923,-2.482C0.611,-2.482 0.606,-1.697 0.723,-1.013C2.561,-0.867 1.811,-1.65 0.923,-2.482" style="fill:rgb(245,134,98);fill-rule:nonzero;"/>
                </g>
            </g>
        </g>
    </g>
</svg>
